<svg width="30" height="30" viewBox="0 0 30 30" fill="none" xmlns="http://www.w3.org/2000/svg">
<path fill-rule="evenodd" clip-rule="evenodd" d="M6.94946 7.5C6.56316 7.5 6.25 7.81316 6.25 8.19946V8.54919C6.25 8.93549 6.56316 9.24865 6.94946 9.24865H16.0423C16.4286 9.24865 16.7418 8.93549 16.7418 8.54919V8.19946C16.7418 7.81316 16.4286 7.5 16.0423 7.5H6.94946ZM6.94946 12.2473C6.56316 12.2473 6.25 12.5604 6.25 12.9467V13.2964C6.25 13.6827 6.56316 13.9959 6.94946 13.9959H16.0423C16.4286 13.9959 16.7418 13.6827 16.7418 13.2964V12.9467C16.7418 12.5604 16.4286 12.2473 16.0423 12.2473H6.94946ZM6.25 17.694C6.25 17.3077 6.56316 16.9945 6.94946 16.9945H12.5451C12.9314 16.9945 13.2445 17.3077 13.2445 17.694V18.0437C13.2445 18.43 12.9314 18.7432 12.5451 18.7432H6.94946C6.56316 18.7432 6.25 18.43 6.25 18.0437V17.694ZM21.4891 14.3716V16.9945H24.1121C24.5949 16.9945 24.9864 17.386 24.9864 17.8688C24.9864 18.3517 24.5949 18.7432 24.1121 18.7432H21.4891V21.3661C21.4891 21.849 21.0976 22.2404 20.6148 22.2404C20.1319 22.2404 19.7405 21.849 19.7405 21.3661V18.7432H17.1175C16.6346 18.7432 16.2432 18.3517 16.2432 17.8688C16.2432 17.386 16.6346 16.9945 17.1175 16.9945H19.7405V14.3716C19.7405 13.8887 20.1319 13.4973 20.6148 13.4973C21.0976 13.4973 21.4891 13.8887 21.4891 14.3716Z" fill="white"/>
</svg>
