<svg width="40" height="40" viewBox="0 0 40 40" fill="none" xmlns="http://www.w3.org/2000/svg">
<circle cx="20" cy="20" r="20" fill="#1FDF64"/>
<path d="M18.0019 26.94C16.5597 26.7575 15.1944 26.1856 14.0528 25.2858C12.9112 24.386 12.0363 23.1923 11.5221 21.8329C11.008 20.4735 10.8739 18.9998 11.1344 17.57C11.3949 16.1402 12.04 14.8083 13.0006 13.7174C13.9611 12.6265 15.2008 11.8178 16.5864 11.3782C17.972 10.9385 19.4513 10.8846 20.8653 11.222C22.2792 11.5595 23.5746 12.2757 24.6121 13.2937C25.6497 14.3117 26.3902 15.593 26.7543 17M29.0049 21H26.0041V27M26.0041 27C26.0041 27.3956 25.8867 27.7823 25.6669 28.1112C25.4471 28.4401 25.1346 28.6964 24.7691 28.8478C24.4035 28.9991 24.0013 29.0388 23.6132 28.9616C23.2252 28.8844 22.8687 28.6939 22.5889 28.4142C22.3091 28.1345 22.1186 27.7782 22.0414 27.3902C21.9642 27.0022 22.0038 26.6001 22.1553 26.2346C22.3067 25.8692 22.5631 25.5568 22.8921 25.3371C23.2211 25.1173 23.6079 25 24.0035 25C24.5341 25 25.0429 25.2107 25.4181 25.5858C25.7933 25.9609 26.0041 26.4696 26.0041 27ZM19.0022 17C18.6065 17 18.2197 17.1173 17.8907 17.3371C17.5617 17.5568 17.3053 17.8692 17.1539 18.2346C17.0025 18.6001 16.9629 19.0022 17.0401 19.3902C17.1172 19.7782 17.3078 20.1345 17.5876 20.4142C17.8673 20.6939 18.2238 20.8844 18.6119 20.9616C18.9999 21.0388 19.4022 20.9991 19.7677 20.8478C20.1333 20.6964 20.4457 20.44 20.6656 20.1111C20.8854 19.7823 21.0027 19.3956 21.0027 19C21.0027 18.4696 20.7919 17.9609 20.4168 17.5858C20.0416 17.2107 19.5327 17 19.0022 17Z" stroke="white" stroke-width="1.5" stroke-linecap="round" stroke-linejoin="round"/>
</svg>
