<svg width="30" height="30" viewBox="0 0 30 30" fill="none" xmlns="http://www.w3.org/2000/svg">
<path d="M14.5029 19.7159C14.64 19.8533 14.82 19.9219 15 19.9219C15.18 19.9219 15.3596 19.8533 15.4971 19.7159L19.0127 16.2002C19.2873 15.9257 19.2873 15.4806 19.0127 15.206C18.7381 14.9314 18.2931 14.9314 18.0185 15.206L15.7031 17.5214V7.26562C15.7031 6.8775 15.3881 6.5625 15 6.5625C14.6119 6.5625 14.2969 6.8775 14.2969 7.26562V17.5214L11.9815 15.206C11.7072 14.9314 11.2615 14.9314 10.9872 15.206C10.7127 15.4806 10.7127 15.9257 10.9872 16.2002L14.5029 19.7159Z" fill="white"/>
<path d="M10.0781 23.4375H19.9219C21.0852 23.4375 22.0312 22.4914 22.0312 21.3281V18.5156C22.0312 18.1275 21.7163 17.8125 21.3281 17.8125C20.94 17.8125 20.625 18.1275 20.625 18.5156V21.3281C20.625 21.7159 20.3096 22.0312 19.9219 22.0312H10.0781C9.69035 22.0312 9.375 21.7159 9.375 21.3281V18.5156C9.375 18.1275 9.06 17.8125 8.67188 17.8125C8.28375 17.8125 7.96875 18.1275 7.96875 18.5156V21.3281C7.96875 22.4914 8.9148 23.4375 10.0781 23.4375Z" fill="white"/>
</svg>
