<svg width="24" height="24" viewBox="0 0 24 24" fill="none" xmlns="http://www.w3.org/2000/svg">
<path fill-rule="evenodd" clip-rule="evenodd" d="M18.8768 6.23329C18.0105 5.30921 16.821 4.79999 15.5304 4.79999C14.563 4.79999 13.6747 5.10158 12.8954 5.69428L12.6653 5.8806L12.4444 6.08249C12.3002 6.22221 12.1622 6.37212 12.0309 6.53184L12 6.56999L11.9693 6.53198C11.7068 6.21264 11.4177 5.93235 11.1048 5.6943C10.3256 5.10158 9.43723 4.79999 8.46978 4.79999C7.17915 4.79999 5.98974 5.30918 5.12343 6.23328C4.26939 7.14439 3.80005 8.38641 3.80005 9.72912C3.80005 11.1104 4.32264 12.3729 5.43402 13.6919C6.0956 14.4769 6.77538 15.127 8.21223 16.3541L11.2511 18.923C11.4585 19.1017 11.7245 19.2 12 19.2C12.2755 19.2 12.5415 19.1017 12.7489 18.9232C12.8953 18.7973 13.0346 18.678 13.1769 18.5568L14.8307 17.164C16.6983 15.595 17.5569 14.8281 18.2771 14.0246L18.5662 13.6918C19.6775 12.373 20.2 11.1105 20.2 9.72912C20.2 8.38633 19.7308 7.14434 18.8768 6.23329ZM13.7109 6.74174C14.2528 6.32965 14.8632 6.12178 15.5304 6.12178C16.4463 6.12178 17.2853 6.48026 17.8959 7.13162C18.5186 7.79599 18.8629 8.71786 18.8629 9.72912C18.8629 10.7972 18.4586 11.7543 17.5388 12.846C16.9605 13.5322 16.3477 14.1232 15.0981 15.1962L11.998 17.814L11.8662 17.7007L10.0308 16.153C8.15018 14.573 7.33196 13.8393 6.64597 13.0602L6.46146 12.846C5.54155 11.7543 5.13718 10.7973 5.13718 9.72912C5.13718 8.71786 5.48147 7.79599 6.10422 7.13162C6.71495 6.48022 7.55387 6.12178 8.46978 6.12178C9.13688 6.12178 9.74736 6.32966 10.2893 6.74177C10.7063 7.05898 11.0507 7.47172 11.3209 7.91711C11.4652 8.15491 11.7201 8.29732 12 8.29732C12.28 8.29732 12.5349 8.15491 12.6792 7.91715C12.9496 7.47156 13.294 7.05894 13.7109 6.74174Z" fill="#262345"/>
</svg>
