<svg width="30" height="30" viewBox="0 0 30 30" fill="none" xmlns="http://www.w3.org/2000/svg">
<path fill-rule="evenodd" clip-rule="evenodd" d="M22.6666 9.17188C22.6666 7.56063 21.3558 6.25 19.7447 6.25C18.1338 6.25 16.8229 7.56068 16.8229 9.17188C16.8229 9.43393 16.8576 9.68804 16.9226 9.92984L11.2678 13.1537C10.7365 12.6063 9.99317 12.2656 9.17188 12.2656C7.56085 12.2656 6.25 13.5763 6.25 15.1875C6.25 16.7987 7.56085 18.1094 9.17188 18.1094C9.99329 18.1094 10.7367 17.7686 11.2681 17.2211L16.9226 20.4448C16.8576 20.6867 16.8229 20.941 16.8229 21.2031C16.8229 22.8143 18.1338 24.125 19.7447 24.125C21.3558 24.125 22.6666 22.8144 22.6666 21.2031C22.6666 19.5919 21.3558 18.2812 19.7447 18.2812C18.9238 18.2812 18.1807 18.6217 17.6493 19.1688L11.9942 15.9448C12.0591 15.7032 12.0938 15.4493 12.0938 15.1875C12.0938 14.9255 12.0591 14.6715 11.9941 14.4298L17.6491 11.2059C18.1805 11.7532 18.9236 12.0938 19.7447 12.0938C21.3558 12.0938 22.6666 10.7831 22.6666 9.17188ZM18.2916 9.17188C18.2916 8.37076 18.9439 7.71875 19.7447 7.71875C20.5456 7.71875 21.1979 8.37076 21.1979 9.17188C21.1979 9.97299 20.5456 10.625 19.7447 10.625C18.9439 10.625 18.2916 9.97299 18.2916 9.17188ZM18.2916 21.2031C18.2916 20.402 18.9439 19.75 19.7447 19.75C20.5456 19.75 21.1979 20.402 21.1979 21.2031C21.1979 22.0042 20.5456 22.6562 19.7447 22.6562C18.9439 22.6562 18.2916 22.0042 18.2916 21.2031ZM9.17188 13.7344C8.37098 13.7344 7.71875 14.3864 7.71875 15.1875C7.71875 15.9886 8.37098 16.6406 9.17188 16.6406C9.97277 16.6406 10.625 15.9886 10.625 15.1875C10.625 14.3864 9.97277 13.7344 9.17188 13.7344Z" fill="white"/>
</svg>
