<svg width="24" height="24" viewBox="0 0 24 24" fill="none" xmlns="http://www.w3.org/2000/svg">
<path fill-rule="evenodd" clip-rule="evenodd" d="M7.98745 12.9967C8.67087 12.3133 8.67087 11.2053 7.98745 10.5218C7.30404 9.83842 6.196 9.83842 5.51258 10.5218C4.82917 11.2053 4.82917 12.3133 5.51258 12.9967C6.196 13.6801 7.30404 13.6801 7.98745 12.9967ZM13.2374 10.5218C13.9209 11.2053 13.9209 12.3133 13.2374 12.9967C12.554 13.6801 11.446 13.6801 10.7626 12.9967C10.0792 12.3133 10.0792 11.2053 10.7626 10.5218C11.446 9.83842 12.554 9.83842 13.2374 10.5218ZM18.4874 10.5218C19.1708 11.2053 19.1708 12.3133 18.4874 12.9967C17.804 13.6801 16.696 13.6801 16.0125 12.9967C15.3291 12.3133 15.3291 11.2053 16.0125 10.5218C16.696 9.83842 17.804 9.83842 18.4874 10.5218Z" fill="white"/>
</svg>
