<svg xmlns="http://www.w3.org/2000/svg" xmlns:xlink="http://www.w3.org/1999/xlink" width="500" zoomAndPan="magnify" viewBox="0 0 375 374.999991" height="500" preserveAspectRatio="xMidYMid meet" version="1.0"><defs><clipPath id="12df18a3c1"><path d="M 116.578125 80.039062 L 258.328125 80.039062 L 258.328125 295.289062 L 116.578125 295.289062 Z M 116.578125 80.039062 " clip-rule="nonzero"/></clipPath><clipPath id="41348f6170"><path d="M 211.550781 81.5625 C 210.257812 80.601562 208.664062 80.039062 206.941406 80.039062 C 202.65625 80.039062 199.152344 83.554688 199.152344 87.847656 L 199.152344 153.378906 L 187.457031 153.378906 C 148.4375 153.378906 116.664062 185.222656 116.664062 224.332031 C 116.664062 263.4375 148.4375 295.289062 187.457031 295.289062 C 226.476562 295.289062 258.257812 263.449219 258.257812 224.332031 L 258.257812 196.992188 L 242.667969 196.992188 L 242.667969 224.332031 C 242.667969 254.820312 217.878906 279.664062 187.457031 279.664062 C 157.042969 279.664062 132.257812 254.820312 132.257812 224.332031 C 132.257812 193.851562 157.042969 169.007812 187.457031 169.007812 L 199.152344 169.007812 L 199.152344 197.003906 L 187.457031 197.003906 C 172.453125 197.003906 160.179688 209.304688 160.179688 224.339844 C 160.179688 239.375 172.453125 251.6875 187.457031 251.6875 C 202.457031 251.6875 214.734375 239.386719 214.734375 224.339844 L 214.734375 223.253906 C 214.734375 191.210938 214.734375 159.171875 214.734375 127.128906 C 237.78125 124.355469 246.941406 146.269531 242.230469 192.871094 C 257.609375 170.386719 262.75 139.316406 237.8125 114.40625 C 233.859375 110.453125 229.699219 106.609375 225.90625 102.683594 C 220.226562 96.820312 213.117188 82.726562 211.550781 81.5625 Z M 211.550781 81.5625 " clip-rule="evenodd"/></clipPath></defs><rect x="-37.5" width="450" fill="#ffffff" y="-37.499999" height="449.999989" fill-opacity="1"/><rect x="-37.5" width="450" fill="#ffffff" y="-37.499999" height="449.999989" fill-opacity="1"/><rect x="-37.5" width="450" fill="#001822" y="-37.499999" height="449.999989" fill-opacity="1"/><g clip-path="url(#12df18a3c1)"><g clip-path="url(#41348f6170)"><path fill="#1fdf64" d="M 116.664062 80.039062 L 116.664062 295.289062 L 258.328125 295.289062 L 258.328125 80.039062 Z M 116.664062 80.039062 " fill-opacity="1" fill-rule="nonzero"/></g></g></svg>