<svg width="30" height="30" viewBox="0 0 30 30" fill="none" xmlns="http://www.w3.org/2000/svg">
<path fill-rule="evenodd" clip-rule="evenodd" d="M23.1442 5.65166C23.1366 5.60791 23.126 5.56416 23.1105 5.52096C22.9638 5.11221 22.5137 4.89983 22.1049 5.04635L12.3986 8.52823C12.3956 8.52928 12.3928 8.53052 12.39 8.53176L12.39 8.53176L12.3834 8.53456C12.3682 8.54041 12.3531 8.54663 12.3383 8.55338C12.3283 8.55788 12.3187 8.5626 12.309 8.56748C12.2964 8.57389 12.284 8.58053 12.2719 8.5876C12.2607 8.59405 12.2497 8.60069 12.2389 8.60764C12.229 8.61405 12.2194 8.62057 12.2098 8.62741C12.198 8.63581 12.1863 8.64444 12.175 8.65342C12.1669 8.65987 12.1591 8.66651 12.1512 8.67323C12.1397 8.68315 12.1285 8.69327 12.1176 8.70377C12.1103 8.71088 12.1032 8.71823 12.0961 8.72565C12.086 8.73627 12.076 8.74702 12.0666 8.75815C12.0592 8.76674 12.0522 8.77561 12.0452 8.78448C12.0371 8.79495 12.029 8.80549 12.0214 8.81635C12.0139 8.8269 12.0069 8.83772 12 8.84866C11.9937 8.8585 11.9876 8.86838 11.9819 8.87854C11.9748 8.89096 11.9681 8.90358 11.9617 8.91643C11.957 8.92588 11.9524 8.93534 11.948 8.94498C11.9419 8.95846 11.9363 8.97217 11.931 8.98604C11.9271 8.99596 11.9234 9.00592 11.92 9.01604C11.9155 9.02948 11.9114 9.04299 11.9076 9.0567C11.9043 9.06831 11.9013 9.07991 11.8986 9.09166C11.8958 9.10389 11.8933 9.11623 11.8911 9.12866C11.8885 9.14276 11.8864 9.1569 11.8846 9.17116C11.8833 9.18163 11.8821 9.19217 11.8813 9.2028C11.8799 9.2192 11.8791 9.23565 11.8788 9.25221L11.8784 9.2596C11.8782 9.2625 11.878 9.26539 11.878 9.26834V18.4446C11.3029 18.0526 10.6088 17.823 9.86186 17.823C7.88315 17.823 6.27339 19.4328 6.27339 21.4115C6.27339 23.3903 7.88315 25.0001 9.86186 25.0001C11.8406 25.0001 13.4504 23.3903 13.4504 21.4115V9.82151L21.6076 6.89534V15.0629C21.0326 14.6709 20.3385 14.4413 19.5916 14.4413C17.6128 14.4413 16.0031 16.0511 16.0031 18.0298C16.0031 20.0085 17.6128 21.6183 19.5916 21.6183C21.5703 21.6183 23.1801 20.0085 23.1801 18.0298V5.88659C23.18 5.80475 23.1674 5.72588 23.1442 5.65166ZM9.86176 23.4276C8.75008 23.4276 7.84575 22.5232 7.84575 21.4115C7.84575 20.2998 8.75012 19.3954 9.86176 19.3954C10.9734 19.3954 11.8779 20.2998 11.8779 21.4115C11.8778 22.5232 10.9734 23.4276 9.86176 23.4276ZM17.5755 18.0298C17.5755 19.1415 18.4798 20.0459 19.5915 20.0459C20.7031 20.0459 21.6076 19.1415 21.6076 18.0298C21.6076 16.9181 20.7032 16.0137 19.5915 16.0137C18.4799 16.0137 17.5755 16.9181 17.5755 18.0298Z" fill="white"/>
</svg>
