<svg width="24" height="24" viewBox="0 0 24 24" fill="none" xmlns="http://www.w3.org/2000/svg">
<path fill-rule="evenodd" clip-rule="evenodd" d="M17.3889 5C17.0853 5 16.8332 5.21168 16.7858 5.48875L16.7778 5.58333V18.4167C16.7778 18.7387 17.0516 19 17.3889 19C17.6925 19 17.9446 18.7883 17.992 18.5112L18 18.4167V5.58333C18 5.26133 17.7262 5 17.3889 5ZM8.08328 5.33979C7.73586 5.00817 7.21336 4.90871 6.75442 5.09013C6.33775 5.25478 6.05517 5.61927 6.00724 6.04005L6 6.16783V17.8322C6 18.3058 6.29608 18.7288 6.75442 18.9102C6.90658 18.9703 7.06578 18.9997 7.22344 18.9997C7.49556 18.9997 7.76297 18.9125 7.9814 18.7467L8.08633 18.6573L14.2564 12.674C14.6527 12.2383 14.6527 11.5809 14.2564 11.1448L14.2237 11.1113L8.08328 5.33979ZM13.3312 11.9096L7.22253 6.162L7.21886 17.8351L13.3312 11.9096Z" fill="white"/>
</svg>
