<svg width="16" height="16" viewBox="0 0 16 16" fill="none" xmlns="http://www.w3.org/2000/svg">
<g clip-path="url(#clip0_295_2599)">
<path d="M8.5 10C8.77637 10 9 9.77638 9 9.5V6.5C9 6.225 8.775 6 8.5 6H7.5C7.225 6 7 6.225 7 6.5C7 6.775 7.225 7 7.5 7H8V9.5C8 9.775 8.225 10 8.5 10ZM5.5 3.5L9.97188 3.49994L10 5.5C10 5.69435 10.1123 5.87 10.2881 5.95313C10.3562 5.98438 10.4281 6 10.5 6C10.6147 6 10.7285 5.96094 10.8203 5.88378L13.8203 3.38378C13.9344 3.2875 14 3.14688 14 2.97188C14 2.79688 13.9341 2.68272 13.8203 2.58813L10.8203 0.0881279C10.6709 -0.0368721 10.4625 -0.0622471 10.2881 0.0187841C10.1125 0.129628 10 0.305409 10 0.49969L9.97188 2.5H5.5C2.46719 2.5 0 4.94063 0 8C0 8.27638 0.223625 8.5 0.5 8.5C0.776375 8.5 1 8.275 1 8C1 5.51875 3.01844 3.5 5.5 3.5ZM11 1.56719L12.7188 3L11 4.43125V1.56719ZM15.5 7.5C15.225 7.5 15 7.725 15 8C15 10.4816 12.9816 12.5 10.5 12.5H6V10.5C6 10.3057 5.88769 10.13 5.71191 10.0469C5.64375 10.0156 5.57187 10 5.5 10C5.38525 10 5.2715 10.0391 5.17969 10.1162L2.17969 12.6162C2.06594 12.7125 2 12.8531 2 13C2 13.1469 2.06591 13.2892 2.17969 13.3841L5.17969 15.8841C5.32909 16.0091 5.5375 16.0344 5.71187 15.9534C5.8875 15.8719 6 15.6938 6 15.5V13.5H10.5C13.5328 13.5 16 11.0322 16 8C16 7.725 15.775 7.5 15.5 7.5ZM5 14.4313L3.28125 13L5 11.5688V14.4313Z" fill="black"/>
</g>
<defs>
<clipPath id="clip0_295_2599">
<rect width="16" height="16" fill="white"/>
</clipPath>
</defs>
</svg>
