<svg width="24" height="24" viewBox="0 0 24 24" fill="none" xmlns="http://www.w3.org/2000/svg">
<path d="M17.9188 12.8668C17.6678 12.6158 17.2608 12.6158 17.0098 12.8668C16.7588 13.1179 16.7588 13.5248 17.0098 13.7758L17.5196 14.2856H15.8073C15.2181 14.2856 14.6695 14.0217 14.3011 13.5618L12.8232 11.7142L14.3011 9.86663C14.6695 9.40667 15.2181 9.14278 15.8073 9.14278H17.5196L17.0098 9.65256C16.7588 9.9036 16.7588 10.3105 17.0098 10.5616C17.1355 10.6872 17.2997 10.7499 17.4643 10.7499C17.6289 10.7499 17.7931 10.6872 17.9188 10.5616L19.5259 8.95442C19.777 8.70338 19.777 8.29646 19.5259 8.04542L17.9188 6.43828C17.6678 6.18724 17.2608 6.18724 17.0098 6.43828C16.7588 6.68931 16.7588 7.09624 17.0098 7.34728L17.5196 7.85706H15.8073C14.8254 7.85706 13.9109 8.29678 13.2973 9.06338L12 10.685L10.7027 9.06306C10.0894 8.29678 9.17465 7.85706 8.19269 7.85706H4.92858C4.57372 7.85706 4.28572 8.14506 4.28572 8.49992C4.28572 8.85478 4.57372 9.14278 4.92858 9.14278H8.19269C8.78186 9.14278 9.33054 9.40667 9.6989 9.86663L11.1768 11.7142L9.6989 13.5618C9.33054 14.0217 8.78186 14.2856 8.19269 14.2856H4.92858C4.57372 14.2856 4.28572 14.5736 4.28572 14.9285C4.28572 15.2833 4.57372 15.5713 4.92858 15.5713H8.19269C9.17465 15.5713 10.0891 15.1316 10.7027 14.365L12 12.7434L13.2973 14.3653C13.9106 15.1316 14.8254 15.5713 15.8073 15.5713H17.5196L17.0098 16.0811C16.7588 16.3322 16.7588 16.7391 17.0098 16.9901C17.1355 17.1158 17.2997 17.1785 17.4643 17.1785C17.6289 17.1785 17.7931 17.1158 17.9188 16.9901L19.5259 15.383C19.777 15.132 19.777 14.725 19.5259 14.474L17.9188 12.8668Z" fill="white"/>
</svg>
